# xmcd
#
# Track frame offsets:
#  150
#  12532
#  24158
#  34895
#  45877
#  59356
#  70059
#  80434
#  91476
#  102868
#  113961
#  126507
#  137558
#  149308
#  160887
#  173667
#  185545
#  197671
#  207263
#  218356
#  229492
#  241763
#  253820
#  266982
#  277617
#  289478
#  300297
#  310801
#  322551
#  335273
#  347558
#
# Disc length: 4757 seconds
#
# Revision: 0
# Processed by: cddbd v1.5.2PL0 Copyright (c) Steve Scherf et al.
# Submitted via: AltoMP3_Maker 3.0
#
DISCID=b312931f
DTITLE=Various Artist - Abbott Hillbilly
DYEAR=1900
DGENRE=
TTITLE0=Smiley Burnette - Lazy Locomotive
TTITLE1=Bob Davis - My Gal Comes from Heaven
TTITLE2=Hillbilly Barton - Strange Affection
TTITLE3=Freddie Frank - 12,000 Texas Longhorns
TTITLE4=Buddy DeVal - Mate of the Wind
TTITLE5=Jim Reeves - My Rambling Heart
TTITLE6=Johnny Horton and Hillbilly Barton - Bawlin' Baby
TTITLE7=Myrna Lorrie - You Bet I Kissed Him
TTITLE8=Rudy Grayzell - Bonita Chiquita
TTITLE9=Carolyn Bradshaw - Flower of the Rio
TTITLE10=Tommy Cutrer - Mexico Gal
TTITLE11=Wink Lewis - Sahw Bessie
TTITLE12=Smiley Burnette - That Long White Line
TTITLE13=Danny Dixon - Sweater Girl
TTITLE14=Carolyn Bradshaw - Baby Then You're Catchin' on
TTITLE15=Bob Stegall - Strong Coffee
TTITLE16=Myrna Lorrie and Buddy DeVal - Are You Mine
TTITLE17=Alvadean Coker - Sugar Doll
TTITLE18=Billy Barton - What's the Matter with Me
TTITLE19=Carolyn Bradshaw - A Man on the Loose
TTITLE20=Herb Henson - The Birds and the Bees
TTITLE21=Myrna Lorrie and Buddy DeVal - I'm Your Man
TTITLE22=Rudy Grayzell - I'm Gone Again
TTITLE23=Billy Barton and Wanda Wayne - That Word Called Love
TTITLE24=Herb Henson and Joyce Yours - Out of Line
TTITLE25=Johnny Horton - Rhythm in My Baby's Walk
TTITLE26=Smiley Burnette - Chuggin' on Down "66"
TTITLE27=Myrna Lorrie - Listen to My Heart Strings
TTITLE28=Curtis Kirk - Oh, So Lonesome Blues
TTITLE29=Dorsey Burnette - Jungle Magic
TTITLE30=Sandy Coker - Toss Over
EXTD=
EXTT0=
EXTT1=
EXTT2=
EXTT3=
EXTT4=
EXTT5=
EXTT6=
EXTT7=
EXTT8=
EXTT9=
EXTT10=
EXTT11=
EXTT12=
EXTT13=
EXTT14=
EXTT15=
EXTT16=
EXTT17=
EXTT18=
EXTT19=
EXTT20=
EXTT21=
EXTT22=
EXTT23=
EXTT24=
EXTT25=
EXTT26=
EXTT27=
EXTT28=
EXTT29=
EXTT30=
PLAYORDER=
